<mxfile host="Electron" agent="Mozilla/5.0 (Windows NT 10.0; Win64; x64) AppleWebKit/537.36 (KHTML, like Gecko) draw.io/26.2.15 Chrome/134.0.6998.205 Electron/35.2.1 Safari/537.36" version="26.2.15">
  <diagram name="Страница — 1" id="3hhZfAA9HZBNkXONshk9">
    <mxGraphModel dx="1188" dy="708" grid="0" gridSize="10" guides="1" tooltips="1" connect="1" arrows="1" fold="1" page="0" pageScale="1" pageWidth="827" pageHeight="1169" math="0" shadow="0">
      <root>
        <mxCell id="0" />
        <mxCell id="1" parent="0" />
        <mxCell id="BbP2ZA5HLroI91MjIK8N-1" value="Начало" style="rounded=1;whiteSpace=wrap;html=1;fontSize=12;glass=0;strokeWidth=1;shadow=0;spacing=0;textShadow=1;arcSize=50;" vertex="1" parent="1">
          <mxGeometry x="360" y="90" width="120" height="40" as="geometry" />
        </mxCell>
        <mxCell id="BbP2ZA5HLroI91MjIK8N-2" value="" style="endArrow=none;html=1;rounded=0;entryX=0.533;entryY=1.015;entryDx=0;entryDy=0;entryPerimeter=0;" edge="1" parent="1">
          <mxGeometry width="50" height="50" relative="1" as="geometry">
            <mxPoint x="419.94" y="269.4" as="sourcePoint" />
            <mxPoint x="419.90000000000003" y="230" as="targetPoint" />
          </mxGeometry>
        </mxCell>
        <mxCell id="BbP2ZA5HLroI91MjIK8N-3" value="Заполнение формы авторизации" style="rounded=0;whiteSpace=wrap;html=1;" vertex="1" parent="1">
          <mxGeometry x="360" y="270" width="120" height="60" as="geometry" />
        </mxCell>
        <mxCell id="BbP2ZA5HLroI91MjIK8N-4" value="" style="endArrow=none;html=1;rounded=0;entryX=0.533;entryY=1.015;entryDx=0;entryDy=0;entryPerimeter=0;" edge="1" parent="1">
          <mxGeometry width="50" height="50" relative="1" as="geometry">
            <mxPoint x="419.84000000000003" y="369.4" as="sourcePoint" />
            <mxPoint x="419.80000000000007" y="330" as="targetPoint" />
          </mxGeometry>
        </mxCell>
        <mxCell id="BbP2ZA5HLroI91MjIK8N-5" value="Отправка формы" style="rounded=0;whiteSpace=wrap;html=1;" vertex="1" parent="1">
          <mxGeometry x="360" y="370" width="120" height="60" as="geometry" />
        </mxCell>
        <mxCell id="BbP2ZA5HLroI91MjIK8N-6" value="" style="endArrow=none;html=1;rounded=0;entryX=0.533;entryY=1.015;entryDx=0;entryDy=0;entryPerimeter=0;" edge="1" parent="1">
          <mxGeometry width="50" height="50" relative="1" as="geometry">
            <mxPoint x="419.84000000000003" y="469.4" as="sourcePoint" />
            <mxPoint x="419.80000000000007" y="430" as="targetPoint" />
          </mxGeometry>
        </mxCell>
        <mxCell id="BbP2ZA5HLroI91MjIK8N-7" value="Форма валидна?" style="rhombus;whiteSpace=wrap;html=1;" vertex="1" parent="1">
          <mxGeometry x="360" y="470" width="120" height="80" as="geometry" />
        </mxCell>
        <mxCell id="BbP2ZA5HLroI91MjIK8N-8" value="" style="endArrow=none;html=1;rounded=0;entryX=0.533;entryY=1.015;entryDx=0;entryDy=0;entryPerimeter=0;" edge="1" parent="1">
          <mxGeometry width="50" height="50" relative="1" as="geometry">
            <mxPoint x="419.84000000000003" y="589.4" as="sourcePoint" />
            <mxPoint x="419.80000000000007" y="550" as="targetPoint" />
          </mxGeometry>
        </mxCell>
        <mxCell id="BbP2ZA5HLroI91MjIK8N-9" value="Да" style="text;html=1;align=center;verticalAlign=middle;whiteSpace=wrap;rounded=0;" vertex="1" parent="1">
          <mxGeometry x="370" y="550" width="60" height="30" as="geometry" />
        </mxCell>
        <mxCell id="BbP2ZA5HLroI91MjIK8N-10" value="Нет" style="text;html=1;align=center;verticalAlign=middle;whiteSpace=wrap;rounded=0;" vertex="1" parent="1">
          <mxGeometry x="470" y="480" width="60" height="30" as="geometry" />
        </mxCell>
        <mxCell id="BbP2ZA5HLroI91MjIK8N-11" value="Вывод формы авторизации в системе" style="rounded=0;whiteSpace=wrap;html=1;" vertex="1" parent="1">
          <mxGeometry x="360" y="170" width="120" height="60" as="geometry" />
        </mxCell>
        <mxCell id="BbP2ZA5HLroI91MjIK8N-12" value="" style="endArrow=none;html=1;rounded=0;entryX=0.533;entryY=1.015;entryDx=0;entryDy=0;entryPerimeter=0;" edge="1" parent="1">
          <mxGeometry width="50" height="50" relative="1" as="geometry">
            <mxPoint x="419.75" y="170" as="sourcePoint" />
            <mxPoint x="419.71000000000004" y="130.59999999999997" as="targetPoint" />
          </mxGeometry>
        </mxCell>
        <mxCell id="BbP2ZA5HLroI91MjIK8N-13" value="" style="endArrow=classic;html=1;rounded=0;exitX=1;exitY=0.5;exitDx=0;exitDy=0;" edge="1" parent="1" source="BbP2ZA5HLroI91MjIK8N-7">
          <mxGeometry width="50" height="50" relative="1" as="geometry">
            <mxPoint x="650" y="430" as="sourcePoint" />
            <mxPoint x="420" y="150" as="targetPoint" />
            <Array as="points">
              <mxPoint x="580" y="510" />
              <mxPoint x="580" y="150" />
            </Array>
          </mxGeometry>
        </mxCell>
        <mxCell id="BbP2ZA5HLroI91MjIK8N-14" value="Создание новой сессии" style="rounded=0;whiteSpace=wrap;html=1;" vertex="1" parent="1">
          <mxGeometry x="360" y="590" width="120" height="60" as="geometry" />
        </mxCell>
        <mxCell id="BbP2ZA5HLroI91MjIK8N-15" value="Перенаправление пользователя на главную страницу" style="rounded=0;whiteSpace=wrap;html=1;" vertex="1" parent="1">
          <mxGeometry x="360" y="690" width="120" height="60" as="geometry" />
        </mxCell>
        <mxCell id="BbP2ZA5HLroI91MjIK8N-16" value="" style="endArrow=none;html=1;rounded=0;entryX=0.533;entryY=1.015;entryDx=0;entryDy=0;entryPerimeter=0;" edge="1" parent="1">
          <mxGeometry width="50" height="50" relative="1" as="geometry">
            <mxPoint x="419.70000000000005" y="689.4" as="sourcePoint" />
            <mxPoint x="419.6600000000001" y="650" as="targetPoint" />
          </mxGeometry>
        </mxCell>
        <mxCell id="BbP2ZA5HLroI91MjIK8N-17" value="Конец" style="rounded=1;whiteSpace=wrap;html=1;fontSize=12;glass=0;strokeWidth=1;shadow=0;spacing=0;textShadow=1;arcSize=50;" vertex="1" parent="1">
          <mxGeometry x="360" y="790" width="120" height="40" as="geometry" />
        </mxCell>
        <mxCell id="BbP2ZA5HLroI91MjIK8N-18" value="" style="endArrow=none;html=1;rounded=0;entryX=0.533;entryY=1.015;entryDx=0;entryDy=0;entryPerimeter=0;" edge="1" parent="1">
          <mxGeometry width="50" height="50" relative="1" as="geometry">
            <mxPoint x="419.70000000000005" y="789.4" as="sourcePoint" />
            <mxPoint x="419.6600000000001" y="750" as="targetPoint" />
          </mxGeometry>
        </mxCell>
        <mxCell id="BbP2ZA5HLroI91MjIK8N-19" value="Вывод ошибок в форме" style="rounded=0;whiteSpace=wrap;html=1;" vertex="1" parent="1">
          <mxGeometry x="520" y="370" width="120" height="60" as="geometry" />
        </mxCell>
      </root>
    </mxGraphModel>
  </diagram>
</mxfile>
